<mxfile host="app.diagrams.net" modified="2023-06-30T11:41:31.552Z" agent="Mozilla/5.0 (X11; Ubuntu; Linux x86_64; rv:109.0) Gecko/20100101 Firefox/114.0" etag="5Xn-sjkbAh2yVRGEXhNa" version="21.5.1">
  <diagram id="GKMzzEyLD9oDl8COxv9A" name="Seite-1">
    <mxGraphModel dx="2187" dy="1964" grid="1" gridSize="10" guides="1" tooltips="1" connect="1" arrows="1" fold="1" page="1" pageScale="1" pageWidth="827" pageHeight="1169" math="0" shadow="0">
      <root>
        <mxCell id="0" />
        <mxCell id="1" parent="0" />
        <mxCell id="yvZ86YNyxYZigQFrcvob-55" value="" style="ellipse;shape=cloud;whiteSpace=wrap;html=1;fontSize=18;" parent="1" vertex="1">
          <mxGeometry x="-290" y="20" width="1120" height="770" as="geometry" />
        </mxCell>
        <mxCell id="yvZ86YNyxYZigQFrcvob-57" value="" style="rounded=0;whiteSpace=wrap;html=1;fontSize=18;" parent="1" vertex="1">
          <mxGeometry x="-45" y="340" width="725" height="280" as="geometry" />
        </mxCell>
        <mxCell id="yvZ86YNyxYZigQFrcvob-1" value="Spring Cloud Gateway" style="rounded=0;whiteSpace=wrap;html=1;fillColor=#dae8fc;strokeColor=#6c8ebf;fontSize=18;" parent="1" vertex="1">
          <mxGeometry x="-40" y="280" width="720" height="30" as="geometry" />
        </mxCell>
        <mxCell id="yvZ86YNyxYZigQFrcvob-6" value="Service B" style="rounded=0;whiteSpace=wrap;html=1;fontSize=18;" parent="1" vertex="1">
          <mxGeometry x="414" y="395" width="120" height="60" as="geometry" />
        </mxCell>
        <mxCell id="yvZ86YNyxYZigQFrcvob-7" value="Service B" style="rounded=0;whiteSpace=wrap;html=1;fontSize=18;" parent="1" vertex="1">
          <mxGeometry x="424" y="405" width="120" height="60" as="geometry" />
        </mxCell>
        <mxCell id="yvZ86YNyxYZigQFrcvob-8" value="Service B" style="rounded=0;whiteSpace=wrap;html=1;fontSize=18;" parent="1" vertex="1">
          <mxGeometry x="434" y="415" width="120" height="60" as="geometry" />
        </mxCell>
        <mxCell id="yvZ86YNyxYZigQFrcvob-9" value="&lt;p style=&quot;line-height: 110%;&quot;&gt;&lt;font style=&quot;font-size: 17px;&quot;&gt;Spring Cloud Consul oder Kubernetes&lt;/font&gt;&lt;/p&gt;" style="rounded=0;whiteSpace=wrap;html=1;fillColor=#dae8fc;strokeColor=#6c8ebf;fontSize=18;" parent="1" vertex="1">
          <mxGeometry x="55" y="530" width="140" height="70" as="geometry" />
        </mxCell>
        <mxCell id="yvZ86YNyxYZigQFrcvob-10" value="Spring Cloud Config" style="rounded=0;whiteSpace=wrap;html=1;fillColor=#dae8fc;strokeColor=#6c8ebf;fontSize=18;" parent="1" vertex="1">
          <mxGeometry x="265" y="530" width="136" height="70" as="geometry" />
        </mxCell>
        <mxCell id="yvZ86YNyxYZigQFrcvob-61" style="edgeStyle=orthogonalEdgeStyle;rounded=0;orthogonalLoop=1;jettySize=auto;html=1;entryX=0.188;entryY=0.033;entryDx=0;entryDy=0;endArrow=classic;endFill=1;entryPerimeter=0;fontSize=18;" parent="1" source="yvZ86YNyxYZigQFrcvob-22" target="yvZ86YNyxYZigQFrcvob-48" edge="1">
          <mxGeometry relative="1" as="geometry">
            <Array as="points" />
          </mxGeometry>
        </mxCell>
        <mxCell id="yvZ86YNyxYZigQFrcvob-22" value="Web Browser" style="shape=umlActor;verticalLabelPosition=bottom;verticalAlign=top;html=1;outlineConnect=0;fontSize=18;" parent="1" vertex="1">
          <mxGeometry x="80" y="-20" width="30" height="60" as="geometry" />
        </mxCell>
        <mxCell id="yvZ86YNyxYZigQFrcvob-60" style="edgeStyle=orthogonalEdgeStyle;rounded=0;orthogonalLoop=1;jettySize=auto;html=1;entryX=0.479;entryY=-0.1;entryDx=0;entryDy=0;endArrow=classic;endFill=1;entryPerimeter=0;fontSize=18;" parent="1" source="yvZ86YNyxYZigQFrcvob-23" target="yvZ86YNyxYZigQFrcvob-48" edge="1">
          <mxGeometry relative="1" as="geometry">
            <Array as="points" />
          </mxGeometry>
        </mxCell>
        <mxCell id="yvZ86YNyxYZigQFrcvob-23" value="Mobile Client" style="shape=umlActor;verticalLabelPosition=bottom;verticalAlign=top;html=1;outlineConnect=0;fontSize=18;" parent="1" vertex="1">
          <mxGeometry x="290" y="-20" width="30" height="60" as="geometry" />
        </mxCell>
        <mxCell id="yvZ86YNyxYZigQFrcvob-58" style="edgeStyle=orthogonalEdgeStyle;rounded=0;orthogonalLoop=1;jettySize=auto;html=1;entryX=0.5;entryY=0;entryDx=0;entryDy=0;endArrow=classic;endFill=1;fontSize=18;" parent="1" source="yvZ86YNyxYZigQFrcvob-31" target="yvZ86YNyxYZigQFrcvob-53" edge="1">
          <mxGeometry relative="1" as="geometry" />
        </mxCell>
        <mxCell id="yvZ86YNyxYZigQFrcvob-31" value="Backend On-Prem" style="shape=umlActor;verticalLabelPosition=bottom;verticalAlign=top;html=1;outlineConnect=0;fontSize=18;" parent="1" vertex="1">
          <mxGeometry x="522.5" y="-20" width="30" height="60" as="geometry" />
        </mxCell>
        <mxCell id="yvZ86YNyxYZigQFrcvob-62" style="edgeStyle=orthogonalEdgeStyle;rounded=0;orthogonalLoop=1;jettySize=auto;html=1;entryX=0.193;entryY=0;entryDx=0;entryDy=0;entryPerimeter=0;endArrow=classic;endFill=1;fontSize=18;" parent="1" source="yvZ86YNyxYZigQFrcvob-48" target="yvZ86YNyxYZigQFrcvob-1" edge="1">
          <mxGeometry relative="1" as="geometry">
            <Array as="points">
              <mxPoint x="100" y="275" />
            </Array>
          </mxGeometry>
        </mxCell>
        <mxCell id="yvZ86YNyxYZigQFrcvob-63" style="edgeStyle=orthogonalEdgeStyle;rounded=0;orthogonalLoop=1;jettySize=auto;html=1;endArrow=classic;endFill=1;fontSize=18;" parent="1" source="yvZ86YNyxYZigQFrcvob-48" target="yvZ86YNyxYZigQFrcvob-1" edge="1">
          <mxGeometry relative="1" as="geometry">
            <Array as="points">
              <mxPoint x="310" y="270" />
              <mxPoint x="310" y="270" />
            </Array>
          </mxGeometry>
        </mxCell>
        <mxCell id="yvZ86YNyxYZigQFrcvob-65" style="edgeStyle=orthogonalEdgeStyle;rounded=0;orthogonalLoop=1;jettySize=auto;html=1;entryX=0.806;entryY=0.033;entryDx=0;entryDy=0;entryPerimeter=0;endArrow=classic;endFill=1;fontSize=18;" parent="1" source="yvZ86YNyxYZigQFrcvob-48" target="yvZ86YNyxYZigQFrcvob-1" edge="1">
          <mxGeometry relative="1" as="geometry">
            <Array as="points">
              <mxPoint x="540" y="260" />
              <mxPoint x="540" y="260" />
            </Array>
          </mxGeometry>
        </mxCell>
        <mxCell id="yvZ86YNyxYZigQFrcvob-48" value="Firewall" style="rounded=0;whiteSpace=wrap;html=1;fontSize=18;" parent="1" vertex="1">
          <mxGeometry x="-40" y="220" width="720" height="30" as="geometry" />
        </mxCell>
        <mxCell id="yvZ86YNyxYZigQFrcvob-52" value="Spring Cloud&lt;br style=&quot;font-size: 18px;&quot;&gt;Vault" style="rounded=0;whiteSpace=wrap;html=1;fillColor=#dae8fc;strokeColor=#6c8ebf;fontSize=18;" parent="1" vertex="1">
          <mxGeometry x="467.5" y="530" width="120" height="70" as="geometry" />
        </mxCell>
        <mxCell id="yvZ86YNyxYZigQFrcvob-59" style="edgeStyle=orthogonalEdgeStyle;rounded=0;orthogonalLoop=1;jettySize=auto;html=1;endArrow=classic;endFill=1;fontSize=18;" parent="1" source="yvZ86YNyxYZigQFrcvob-53" target="yvZ86YNyxYZigQFrcvob-48" edge="1">
          <mxGeometry relative="1" as="geometry">
            <Array as="points">
              <mxPoint x="538" y="200" />
              <mxPoint x="538" y="200" />
            </Array>
          </mxGeometry>
        </mxCell>
        <mxCell id="yvZ86YNyxYZigQFrcvob-53" value="Firewall" style="rounded=0;whiteSpace=wrap;html=1;fontSize=18;" parent="1" vertex="1">
          <mxGeometry x="487.5" y="100" width="100" height="30" as="geometry" />
        </mxCell>
        <mxCell id="yvZ86YNyxYZigQFrcvob-67" value="Service A" style="rounded=0;whiteSpace=wrap;html=1;fontSize=18;" parent="1" vertex="1">
          <mxGeometry x="10" y="370" width="210" height="90" as="geometry" />
        </mxCell>
        <mxCell id="yvZ86YNyxYZigQFrcvob-70" value="Service A" style="rounded=0;whiteSpace=wrap;html=1;fontSize=18;" parent="1" vertex="1">
          <mxGeometry x="20" y="380" width="210" height="90" as="geometry" />
        </mxCell>
        <mxCell id="yvZ86YNyxYZigQFrcvob-71" value="Service A" style="rounded=0;whiteSpace=wrap;html=1;fontSize=18;" parent="1" vertex="1">
          <mxGeometry x="30" y="390" width="210" height="90" as="geometry" />
        </mxCell>
        <mxCell id="yvZ86YNyxYZigQFrcvob-72" style="edgeStyle=orthogonalEdgeStyle;rounded=0;orthogonalLoop=1;jettySize=auto;html=1;endArrow=classic;endFill=1;fontSize=18;" parent="1" source="yvZ86YNyxYZigQFrcvob-69" target="yvZ86YNyxYZigQFrcvob-8" edge="1">
          <mxGeometry relative="1" as="geometry" />
        </mxCell>
        <mxCell id="yvZ86YNyxYZigQFrcvob-69" value="&lt;p style=&quot;line-height: 90%; font-size: 16px;&quot;&gt;Spring Cloud Circuit Breaker&lt;br style=&quot;font-size: 16px;&quot;&gt;&lt;br style=&quot;font-size: 16px;&quot;&gt;RestTemplate&lt;br style=&quot;font-size: 16px;&quot;&gt;&lt;br style=&quot;font-size: 16px;&quot;&gt;Spring Cloud&lt;br style=&quot;font-size: 16px;&quot;&gt;Load Balancer&lt;/p&gt;" style="rounded=1;whiteSpace=wrap;html=1;fillColor=#dae8fc;strokeColor=#6c8ebf;fontSize=16;" parent="1" vertex="1">
          <mxGeometry x="210" y="390" width="150" height="110" as="geometry" />
        </mxCell>
        <mxCell id="W1_vHkp_aWbJyvPAnoVt-1" value="" style="endArrow=classic;html=1;rounded=0;entryX=0.5;entryY=0;entryDx=0;entryDy=0;" edge="1" parent="1" target="yvZ86YNyxYZigQFrcvob-8">
          <mxGeometry width="50" height="50" relative="1" as="geometry">
            <mxPoint x="494" y="310" as="sourcePoint" />
            <mxPoint x="420" y="410" as="targetPoint" />
          </mxGeometry>
        </mxCell>
        <mxCell id="W1_vHkp_aWbJyvPAnoVt-2" value="" style="endArrow=classic;html=1;rounded=0;entryX=0.5;entryY=0;entryDx=0;entryDy=0;" edge="1" parent="1" target="yvZ86YNyxYZigQFrcvob-71">
          <mxGeometry width="50" height="50" relative="1" as="geometry">
            <mxPoint x="135" y="310" as="sourcePoint" />
            <mxPoint x="420" y="410" as="targetPoint" />
          </mxGeometry>
        </mxCell>
      </root>
    </mxGraphModel>
  </diagram>
</mxfile>
